{
    "asset" : {
        "generator" : "Khronos glTF Blender I/O v1.4.40",
        "version" : "2.0"
    },
    "scene" : 0,
    "scenes" : [
        {
            "name" : "Scene",
            "nodes" : [
                0
            ]
        }
    ],
    "nodes" : [
        {
            "mesh" : 0,
            "name" : "Gas Alarm sensor.007",
            "rotation" : [
                0,
                1,
                0,
                -1.6292068494294654e-07
            ],
            "scale" : [
                0.10170409083366394,
                0.09878525137901306,
                0.06199369207024574
            ],
            "translation" : [
                0.013446807861328125,
                -0.07774543762207031,
                -0.012948036193847656
            ]
        }
    ],
    "materials" : [
        {
            "doubleSided" : true,
            "name" : "Plastic cap for pipe.022",
            "pbrMetallicRoughness" : {
                "baseColorFactor" : [
                    1,
                    0.9418209791183472,
                    0.5586290955543518,
                    1
                ],
                "metallicFactor" : 0,
                "roughnessFactor" : 0.2863636314868927
            }
        },
        {
            "doubleSided" : true,
            "name" : "Screws.020",
            "pbrMetallicRoughness" : {
                "baseColorFactor" : [
                    0.6551980376243591,
                    0.6761052012443542,
                    0.5717624425888062,
                    1
                ],
                "roughnessFactor" : 0.5
            }
        },
        {
            "doubleSided" : true,
            "name" : "Gas Alarm sticker.020",
            "pbrMetallicRoughness" : {
                "baseColorFactor" : [
                    0.800000011920929,
                    0.800000011920929,
                    0.800000011920929,
                    1
                ],
                "metallicFactor" : 0,
                "roughnessFactor" : 0.5
            }
        },
        {
            "doubleSided" : true,
            "name" : "BlueGasAlarm logo.006",
            "pbrMetallicRoughness" : {
                "baseColorFactor" : [
                    0.0030351877212524414,
                    0.09084172546863556,
                    0.9911019802093506,
                    1
                ],
                "metallicFactor" : 0,
                "roughnessFactor" : 0.5
            }
        },
        {
            "doubleSided" : true,
            "name" : "RedGasAlarm logo.006",
            "pbrMetallicRoughness" : {
                "baseColorFactor" : [
                    0.9911022782325745,
                    0.001213948125950992,
                    0.0021247081458568573,
                    1
                ],
                "metallicFactor" : 0,
                "roughnessFactor" : 0.5
            }
        },
        {
            "doubleSided" : true,
            "name" : "Plastic cap for pipe.021",
            "pbrMetallicRoughness" : {
                "baseColorFactor" : [
                    1,
                    0.9418209791183472,
                    0.5586290955543518,
                    1
                ],
                "metallicFactor" : 0,
                "roughnessFactor" : 0
            }
        }
    ],
    "meshes" : [
        {
            "name" : "Cube.239",
            "primitives" : [
                {
                    "attributes" : {
                        "POSITION" : 0,
                        "NORMAL" : 1,
                        "TEXCOORD_0" : 2
                    },
                    "indices" : 3,
                    "material" : 0
                },
                {
                    "attributes" : {
                        "POSITION" : 4,
                        "NORMAL" : 5,
                        "TEXCOORD_0" : 6
                    },
                    "indices" : 7,
                    "material" : 1
                },
                {
                    "attributes" : {
                        "POSITION" : 8,
                        "NORMAL" : 9,
                        "TEXCOORD_0" : 10
                    },
                    "indices" : 11,
                    "material" : 2
                },
                {
                    "attributes" : {
                        "POSITION" : 12,
                        "NORMAL" : 13,
                        "TEXCOORD_0" : 14
                    },
                    "indices" : 15,
                    "material" : 3
                },
                {
                    "attributes" : {
                        "POSITION" : 16,
                        "NORMAL" : 17,
                        "TEXCOORD_0" : 18
                    },
                    "indices" : 19,
                    "material" : 4
                },
                {
                    "attributes" : {
                        "POSITION" : 20,
                        "NORMAL" : 21,
                        "TEXCOORD_0" : 22
                    },
                    "indices" : 23,
                    "material" : 5
                }
            ]
        }
    ],
    "accessors" : [
        {
            "bufferView" : 0,
            "componentType" : 5126,
            "count" : 1642,
            "max" : [
                1.4930076599121094,
                0.9834548830986023,
                0.1654459536075592
            ],
            "min" : [
                -1.4658348560333252,
                -1.6098597049713135,
                -1.8401998281478882
            ],
            "type" : "VEC3"
        },
        {
            "bufferView" : 1,
            "componentType" : 5126,
            "count" : 1642,
            "type" : "VEC3"
        },
        {
            "bufferView" : 2,
            "componentType" : 5126,
            "count" : 1642,
            "type" : "VEC2"
        },
        {
            "bufferView" : 3,
            "componentType" : 5123,
            "count" : 5496,
            "type" : "SCALAR"
        },
        {
            "bufferView" : 4,
            "componentType" : 5126,
            "count" : 2388,
            "max" : [
                1.4266005754470825,
                0.9237126111984253,
                0.1637369692325592
            ],
            "min" : [
                -1.3994277715682983,
                -1.0196858644485474,
                -0.4242757260799408
            ],
            "type" : "VEC3"
        },
        {
            "bufferView" : 5,
            "componentType" : 5126,
            "count" : 2388,
            "type" : "VEC3"
        },
        {
            "bufferView" : 6,
            "componentType" : 5126,
            "count" : 2388,
            "type" : "VEC2"
        },
        {
            "bufferView" : 7,
            "componentType" : 5123,
            "count" : 3936,
            "type" : "SCALAR"
        },
        {
            "bufferView" : 8,
            "componentType" : 5126,
            "count" : 40,
            "max" : [
                1.055421233177185,
                0.42341965436935425,
                0.1860300600528717
            ],
            "min" : [
                -0.9825297594070435,
                -0.31187117099761963,
                -0.1684621274471283
            ],
            "type" : "VEC3"
        },
        {
            "bufferView" : 9,
            "componentType" : 5126,
            "count" : 40,
            "type" : "VEC3"
        },
        {
            "bufferView" : 10,
            "componentType" : 5126,
            "count" : 40,
            "type" : "VEC2"
        },
        {
            "bufferView" : 11,
            "componentType" : 5123,
            "count" : 108,
            "type" : "SCALAR"
        },
        {
            "bufferView" : 12,
            "componentType" : 5126,
            "count" : 48,
            "max" : [
                0.9443246126174927,
                0.3096565902233124,
                0.1972910463809967
            ],
            "min" : [
                -0.8733311891555786,
                -0.20060715079307556,
                0.036875396966934204
            ],
            "type" : "VEC3"
        },
        {
            "bufferView" : 13,
            "componentType" : 5126,
            "count" : 48,
            "type" : "VEC3"
        },
        {
            "bufferView" : 14,
            "componentType" : 5126,
            "count" : 48,
            "type" : "VEC2"
        },
        {
            "bufferView" : 15,
            "componentType" : 5123,
            "count" : 72,
            "type" : "SCALAR"
        },
        {
            "bufferView" : 16,
            "componentType" : 5126,
            "count" : 12269,
            "max" : [
                0.9158663153648376,
                0.20193418860435486,
                0.1972910463809967
            ],
            "min" : [
                -0.8412009477615356,
                -0.09004979580640793,
                0.036875396966934204
            ],
            "type" : "VEC3"
        },
        {
            "bufferView" : 17,
            "componentType" : 5126,
            "count" : 12269,
            "type" : "VEC3"
        },
        {
            "bufferView" : 18,
            "componentType" : 5126,
            "count" : 12269,
            "type" : "VEC2"
        },
        {
            "bufferView" : 19,
            "componentType" : 5123,
            "count" : 20796,
            "type" : "SCALAR"
        },
        {
            "bufferView" : 20,
            "componentType" : 5126,
            "count" : 558,
            "max" : [
                0.3344162702560425,
                1.5683284997940063,
                -0.9134724736213684
            ],
            "min" : [
                -0.2099997103214264,
                0.9041220545768738,
                -1.8066152334213257
            ],
            "type" : "VEC3"
        },
        {
            "bufferView" : 21,
            "componentType" : 5126,
            "count" : 558,
            "type" : "VEC3"
        },
        {
            "bufferView" : 22,
            "componentType" : 5126,
            "count" : 558,
            "type" : "VEC2"
        },
        {
            "bufferView" : 23,
            "componentType" : 5123,
            "count" : 1524,
            "type" : "SCALAR"
        }
    ],
    "bufferViews" : [
        {
            "buffer" : 0,
            "byteLength" : 19704,
            "byteOffset" : 0
        },
        {
            "buffer" : 0,
            "byteLength" : 19704,
            "byteOffset" : 19704
        },
        {
            "buffer" : 0,
            "byteLength" : 13136,
            "byteOffset" : 39408
        },
        {
            "buffer" : 0,
            "byteLength" : 10992,
            "byteOffset" : 52544
        },
        {
            "buffer" : 0,
            "byteLength" : 28656,
            "byteOffset" : 63536
        },
        {
            "buffer" : 0,
            "byteLength" : 28656,
            "byteOffset" : 92192
        },
        {
            "buffer" : 0,
            "byteLength" : 19104,
            "byteOffset" : 120848
        },
        {
            "buffer" : 0,
            "byteLength" : 7872,
            "byteOffset" : 139952
        },
        {
            "buffer" : 0,
            "byteLength" : 480,
            "byteOffset" : 147824
        },
        {
            "buffer" : 0,
            "byteLength" : 480,
            "byteOffset" : 148304
        },
        {
            "buffer" : 0,
            "byteLength" : 320,
            "byteOffset" : 148784
        },
        {
            "buffer" : 0,
            "byteLength" : 216,
            "byteOffset" : 149104
        },
        {
            "buffer" : 0,
            "byteLength" : 576,
            "byteOffset" : 149320
        },
        {
            "buffer" : 0,
            "byteLength" : 576,
            "byteOffset" : 149896
        },
        {
            "buffer" : 0,
            "byteLength" : 384,
            "byteOffset" : 150472
        },
        {
            "buffer" : 0,
            "byteLength" : 144,
            "byteOffset" : 150856
        },
        {
            "buffer" : 0,
            "byteLength" : 147228,
            "byteOffset" : 151000
        },
        {
            "buffer" : 0,
            "byteLength" : 147228,
            "byteOffset" : 298228
        },
        {
            "buffer" : 0,
            "byteLength" : 98152,
            "byteOffset" : 445456
        },
        {
            "buffer" : 0,
            "byteLength" : 41592,
            "byteOffset" : 543608
        },
        {
            "buffer" : 0,
            "byteLength" : 6696,
            "byteOffset" : 585200
        },
        {
            "buffer" : 0,
            "byteLength" : 6696,
            "byteOffset" : 591896
        },
        {
            "buffer" : 0,
            "byteLength" : 4464,
            "byteOffset" : 598592
        },
        {
            "buffer" : 0,
            "byteLength" : 3048,
            "byteOffset" : 603056
        }
    ],
    "buffers" : [
        {
            "byteLength" : 606104,
            "uri" : "data:application/octet-stream;base64,"
        }
    ]
}
